<svg width="64" height="57" viewBox="0 0 64 57" fill="none" xmlns="http://www.w3.org/2000/svg">
<path fill-rule="evenodd" clip-rule="evenodd" d="M37.6477 0V57H31.2213L16.1622 41.8H5.64717C2.53367 41.8 0 39.2426 0 36.1V20.9C0 17.7574 2.53367 15.2 5.64717 15.2H16.1622L31.2213 0H37.6477ZM33.883 3.79999H32.7799L18.8239 17.8866V39.1134L32.7799 53.2H33.883V3.79999ZM55.7326 8.34594C61.0635 13.7305 64 20.886 64 28.5011C64 36.1125 61.0635 43.2679 55.7326 48.6525L53.0709 45.9659C57.694 41.2995 60.2352 35.0979 60.2352 28.5011C60.2352 21.9005 57.694 15.6989 53.0709 11.0325L55.7326 8.34594ZM47.7622 16.4122C50.9509 19.6764 52.7053 23.9704 52.7053 28.5C52.7053 33.0296 50.9509 37.3236 47.7622 40.5878L45.0779 37.9202C47.5702 35.3704 48.9405 32.0264 48.9405 28.5C48.9405 24.9736 47.5702 21.6296 45.0779 19.0798L47.7622 16.4122ZM15.0591 19H5.64717C4.61183 19 3.76477 19.8512 3.76477 20.9V36.1C3.76477 37.1488 4.61183 38 5.64717 38H15.0591V19Z" fill="black"/>
</svg>
