<?xml version="1.0" encoding="UTF-8" standalone="no"?>
<!DOCTYPE svg PUBLIC "-//W3C//DTD SVG 20010904//EN" "http://www.w3.org/TR/2001/REC-SVG-20010904/DTD/svg10.dtd">
<svg version="1.0" xmlns="http://www.w3.org/2000/svg" width="512.000000pt" height="512.000000pt" viewBox="0 0 512.000000 512.000000" preserveAspectRatio="xMidYMid meet">

<g transform="translate(0.000000,512.000000) scale(0.100000,-0.100000)" fill="#000000" stroke="none">
<path d="M3200 5114 c-280 -27 -478 -80 -715 -193 -533 -254 -959 -737 -1189 -1343 l-42 -113 -415 -5 c-405 -5 -415 -6 -464 -28 -106 -49 -165 -134 -173 -248 -4 -61 -1 -80 20 -126 31 -67 86 -123 147 -152 44 -20 64 -21 404 -24 l358 -3 -8 -37 c-4 -20 -8 -157 -8 -304 l1 -267 -361 -3 c-404 -3 -389 -1 -473 -81 -52 -51 -82 -126 -82 -207 0 -77 46 -170 108 -217 79 -60 103 -63 538 -63 l393 0 19 -52 c11 -29 23 -64 27 -78 30 -102 140 -329 230 -476 360 -588 911 -973 1530 -1070 574 -89 1165 88 1631 490 204 174 239 227 239 356 0 98 -17 140 -82 202 -57 55 -115 78 -198 78 -97 0 -129 -18 -275 -150 -292 -263 -569 -390 -920 -420 -123 -11 -290 1 -412 29 -401 94 -772 373 -1013 762 -53 85 -165 303 -165 321 0 4 424 9 943 10 l942 3 50 23 c224 103 224 414 0 518 l-50 24 -1017 0 -1016 0 -8 68 c-10 90 -10 324 0 444 l8 98 1016 2 c1008 3 1017 3 1062 24 94 44 154 120 169 214 22 139 -53 266 -189 321 -29 11 -195 14 -962 17 -637 2 -928 6 -928 13 0 6 25 60 56 120 245 479 645 813 1102 920 122 28 289 40 412 29 351 -30 627 -157 920 -420 146 -132 178 -150 275 -150 113 0 204 55 258 155 31 57 31 193 0 250 -31 59 -92 125 -217 231 -331 285 -730 461 -1146 504 -89 9 -251 11 -330 4z"/>
</g>
</svg>