<svg width="60" height="238" viewBox="0 0 60 238" fill="none" xmlns="http://www.w3.org/2000/svg">
<path d="M60 30C60 46.5685 46.5685 60 30 60C13.4315 60 0 46.5685 0 30C0 13.4315 13.4315 0 30 0C46.5685 0 60 13.4315 60 30ZM10.1101 30C10.1101 40.9849 19.0151 49.8899 30 49.8899C40.9849 49.8899 49.8899 40.9849 49.8899 30C49.8899 19.0151 40.9849 10.1101 30 10.1101C19.0151 10.1101 10.1101 19.0151 10.1101 30Z" fill="black"/>
<path d="M60 119C60 135.569 46.5685 149 30 149C13.4315 149 0 135.569 0 119C0 102.431 13.4315 89 30 89C46.5685 89 60 102.431 60 119ZM10.1101 119C10.1101 129.985 19.0151 138.89 30 138.89C40.9849 138.89 49.8899 129.985 49.8899 119C49.8899 108.015 40.9849 99.1101 30 99.1101C19.0151 99.1101 10.1101 108.015 10.1101 119Z" fill="black"/>
<path d="M60 208C60 224.569 46.5685 238 30 238C13.4315 238 0 224.569 0 208C0 191.431 13.4315 178 30 178C46.5685 178 60 191.431 60 208ZM10.1101 208C10.1101 218.985 19.0151 227.89 30 227.89C40.9849 227.89 49.8899 218.985 49.8899 208C49.8899 197.015 40.9849 188.11 30 188.11C19.0151 188.11 10.1101 197.015 10.1101 208Z" fill="black"/>
</svg>
