<svg width="39" height="64" viewBox="0 0 39 64" fill="none" xmlns="http://www.w3.org/2000/svg">
<path fill-rule="evenodd" clip-rule="evenodd" d="M12.8 19.2C12.8 22.7347 9.93472 25.6 6.4 25.6C2.86541 25.6 0 22.7347 0 19.2C0 9.26541 9.26528 0 19.2 0C29.1347 0 38.4 9.26541 38.4 19.2C38.4 27.424 35.2026 31.1539 28.4621 34.5242C25.6026 35.9539 25.6 35.9571 25.6 38.4C25.6 41.9347 22.7347 44.8 19.2 44.8C15.6653 44.8 12.8 41.9347 12.8 38.4C12.8 30.176 15.9974 26.4461 22.7379 23.0758C25.5974 21.6461 25.6 21.6429 25.6 19.2C25.6 16.3346 22.0653 12.8 19.2 12.8C16.3347 12.8 12.8 16.3346 12.8 19.2ZM19.2 64C15.6653 64 12.8 61.1347 12.8 57.6C12.8 54.0653 15.6653 51.2 19.2 51.2C22.7347 51.2 25.6 54.0653 25.6 57.6C25.6 61.1347 22.7347 64 19.2 64Z" fill="#EFB61B"/>
</svg>
